<?xml version="1.0" standalone="no"?>
<!DOCTYPE svg PUBLIC "-//W3C//DTD SVG 20010904//EN"
 "http://www.w3.org/TR/2001/REC-SVG-20010904/DTD/svg10.dtd">
<svg version="1.0" xmlns="http://www.w3.org/2000/svg"
 width="250pt" height="55pt" viewBox="0 0 1004.000000 310.000000"
 preserveAspectRatio="xMidYMid meet">

<g transform="translate(0.000000,310.000000) scale(0.100000,-0.100000)"
fill="#000000" stroke="none">
<path d="M3146 2369 c-117 -137 -193 -361 -203 -604 -6 -150 4 -216 48 -305
70 -139 223 -198 355 -136 128 60 203 237 226 534 10 132 10 167 -4 245 -35
207 -121 293 -303 305 l-81 5 -38 -44z m251 -55 c89 -67 124 -224 104 -479
-21 -268 -75 -400 -185 -451 -82 -38 -139 -30 -204 30 -113 105 -91 532 42
795 33 64 90 128 119 134 39 7 91 -5 124 -29z"/>
<path d="M4006 2298 c-3 -24 -13 -106 -21 -183 -8 -77 -17 -151 -20 -165 -2
-14 -9 -78 -15 -143 -10 -116 -34 -215 -83 -351 -27 -74 -43 -92 -65 -73 -15
12 -13 117 4 295 8 79 -2 100 -73 147 l-53 35 6 54 c7 59 -6 96 -34 96 -10 0
-23 -5 -30 -12 -14 -14 -16 -99 -3 -143 5 -20 3 -67 -7 -133 -24 -162 15 -161
50 1 13 60 24 69 51 39 14 -16 17 -45 17 -188 0 -181 5 -202 52 -237 43 -32
71 -18 109 58 22 44 35 61 41 53 4 -7 6 -25 3 -39 -3 -14 -1 -38 5 -53 8 -21
16 -27 34 -24 15 2 34 -6 49 -20 38 -35 76 -27 104 23 40 71 66 206 67 348 l1
129 -33 29 c-18 16 -42 29 -53 29 -24 0 -79 -54 -79 -78 0 -11 -3 -13 -11 -5
-11 11 13 198 52 405 24 128 21 148 -26 148 -31 0 -33 -2 -39 -42z m125 -510
c18 -34 5 -246 -21 -338 -32 -113 -45 -122 -86 -61 -22 34 -25 46 -19 83 18
113 68 293 91 330 9 14 23 9 35 -14z"/>
<path d="M4340 2210 c-11 -11 -20 -31 -20 -45 0 -29 32 -65 58 -65 29 0 42 21
42 67 0 32 -5 45 -19 53 -28 14 -38 13 -61 -10z"/>
<path d="M4531 1851 c-12 -16 -28 -62 -36 -102 -19 -88 -73 -281 -92 -326 -17
-41 -50 -45 -59 -7 -10 38 2 207 20 289 22 97 21 121 -5 128 -27 7 -46 0 -53
-20 -4 -9 -9 -106 -12 -217 -6 -219 -3 -237 48 -265 37 -21 70 -3 98 53 12 25
25 46 30 46 4 0 13 -15 20 -32 19 -48 59 -87 96 -94 83 -15 151 85 204 303 33
134 36 158 19 169 -15 9 -25 -9 -49 -91 -63 -218 -107 -320 -141 -330 -24 -8
-36 0 -59 37 l-18 30 43 91 c47 99 85 222 85 274 0 80 -96 125 -139 64z m78
-89 c-1 -58 -41 -204 -57 -210 -16 -5 -15 40 3 130 21 99 35 139 46 133 5 -4
9 -27 8 -53z"/>
<path d="M4060 1090 c-322 -4 -731 -13 -910 -19 -179 -6 -469 -16 -645 -21
-176 -6 -405 -14 -510 -20 -104 -5 -248 -12 -320 -14 -378 -16 -1052 -64
-1078 -77 -9 -6 -17 -18 -17 -29 0 -35 31 -41 152 -30 204 18 1025 63 1453 79
160 6 344 13 410 16 672 27 2312 50 2935 41 443 -6 1090 -28 1375 -46 127 -8
153 -7 172 6 29 18 29 40 1 58 -74 46 -1639 76 -3018 56z"/>
</g>
</svg>
